<svg xmlns="http://www.w3.org/2000/svg" viewBox="0 0 64 64" width="64" height="64">
  <defs>
    <linearGradient id="browserGrad" x1="0%" y1="0%" x2="100%" y2="100%">
      <stop offset="0%" style="stop-color:#667eea;stop-opacity:1" />
      <stop offset="100%" style="stop-color:#764ba2;stop-opacity:1" />
    </linearGradient>
  </defs>
  
  <!-- Browser window frame -->
  <rect x="6" y="12" width="52" height="40" rx="4" ry="4" fill="url(#browserGrad)" opacity="0.9"/>
  
  <!-- Browser window inner -->
  <rect x="8" y="20" width="48" height="30" rx="2" ry="2" fill="#ffffff" opacity="0.95"/>
  
  <!-- Title bar -->
  <rect x="8" y="14" width="48" height="6" rx="2" ry="2" fill="#2a2a2a"/>
  
  <!-- Window controls -->
  <circle cx="12" cy="17" r="1.5" fill="#ff5f57"/>
  <circle cx="16" cy="17" r="1.5" fill="#ffbd2e"/>
  <circle cx="20" cy="17" r="1.5" fill="#28ca42"/>
  
  <!-- Address bar -->
  <rect x="26" y="15" width="28" height="4" rx="2" ry="2" fill="#f0f0f0" opacity="0.8"/>
  
  <!-- Content representation -->
  <rect x="12" y="24" width="16" height="3" rx="1" ry="1" fill="#667eea" opacity="0.6"/>
  <rect x="12" y="29" width="24" height="2" rx="1" ry="1" fill="#764ba2" opacity="0.4"/>
  <rect x="12" y="33" width="20" height="2" rx="1" ry="1" fill="#667eea" opacity="0.4"/>
  <rect x="12" y="37" width="28" height="2" rx="1" ry="1" fill="#764ba2" opacity="0.4"/>
  <rect x="12" y="41" width="16" height="2" rx="1" ry="1" fill="#667eea" opacity="0.4"/>
  
  <!-- Globe/network icon overlay -->
  <circle cx="45" cy="38" r="8" fill="none" stroke="#667eea" stroke-width="1.5" opacity="0.7"/>
  <path d="M 37 38 Q 41 30 45 38 Q 49 46 53 38" fill="none" stroke="#667eea" stroke-width="1.5" opacity="0.7"/>
  <path d="M 45 30 L 45 46" stroke="#667eea" stroke-width="1.5" opacity="0.7"/>
  <path d="M 37 38 L 53 38" stroke="#667eea" stroke-width="1.5" opacity="0.7"/>
</svg>
